<svg id="e638zf7z1t0w1" xmlns="http://www.w3.org/2000/svg" width="80" height="80" viewBox="0 0 104 104" shape-rendering="geometricPrecision" text-rendering="geometricPrecision"><style>@keyframes e638zf7z1t0w14_tr__tr{0%{transform:translate(53.62495px,51.675px) rotate(0deg)}to{transform:translate(53.62495px,51.675px) rotate(1800deg)}}@keyframes e638zf7z1t0w19_tr__tr{0%{transform:translate(53.62495px,51.675px) rotate(0deg)}to{transform:translate(53.62495px,51.675px) rotate(360deg)}}@keyframes e638zf7z1t0w20_tr__tr{0%{transform:translate(53.62495px,51.675px) rotate(0deg)}to{transform:translate(53.62495px,51.675px) rotate(360deg)}}@keyframes e638zf7z1t0w25_tr__tr{0%{transform:translate(53.673573px,51.675px) rotate(0deg)}to{transform:translate(53.673573px,51.675px) rotate(360deg)}}@keyframes e638zf7z1t0w26_tr__tr{0%{transform:translate(53.62495px,51.675px) rotate(0deg)}to{transform:translate(53.62495px,51.675px) rotate(360deg)}}@keyframes e638zf7z1t0w31_tr__tr{0%{transform:translate(53.62495px,51.675px) rotate(0deg)}to{transform:translate(53.62495px,51.675px) rotate(360deg)}}@keyframes e638zf7z1t0w32_tr__tr{0%{transform:translate(53.62495px,51.675px) rotate(0deg)}to{transform:translate(53.62495px,51.675px) rotate(360deg)}}@keyframes e638zf7z1t0w34_tr__tr{0%{transform:translate(53.62495px,51.675px) rotate(0deg)}to{transform:translate(53.62495px,51.675px) rotate(-360deg)}}</style><g id="e638zf7z1t0w2" clip-path="url(#e638zf7z1t0w35)"><g id="e638zf7z1t0w3"><g id="e638zf7z1t0w4" opacity=".6"><path id="e638zf7z1t0w5" d="M20.638 59.312c1.787 8.125 6.662 15.438 13.487 20.15 6.663 4.875 15.275 6.988 23.4 6.013 8.288-.813 16.088-5.038 21.45-11.05 5.525-6.175 8.613-14.3 8.613-22.588h3.575c0 9.1-3.413 18.2-9.588 25.025-6.012 6.825-14.625 11.375-23.725 12.35-8.937.975-18.525-1.3-26-6.662-7.475-5.2-12.837-13.325-14.95-22.263l3.738-.975z" fill="#000" stroke="none" stroke-width="1"/><path id="e638zf7z1t0w6" d="M85.638 51.837c0-11.375-6.5-22.587-16.413-27.95-9.912-5.687-22.75-5.362-32.5.65-9.75 5.85-15.763 17.388-15.113 28.6.326 11.375 7.476 22.263 17.713 27.3l-1.625 3.25C26.325 78.162 18.362 66.137 18.037 53.3c-.812-12.675 6.013-25.35 16.9-32.013 10.726-6.825 25.026-7.15 36.238-.812 11.05 6.175 18.2 18.687 18.2 31.362h-3.737z" fill="#000" stroke="none" stroke-width="1"/><path id="e638zf7z1t0w7" d="M31.2 26.488l-1.462 1.3-4.875-5.038 1.625-1.462 4.712 5.2z" fill="#000" stroke="none" stroke-width="1"/><path id="e638zf7z1t0w8" d="M48.588 18.363l-1.95.325-1.463-6.825 2.275-.488 1.138 6.988z" fill="#000" stroke="none" stroke-width="1"/><path id="e638zf7z1t0w9" d="M67.6 20.962c-.487-.325-1.137-.487-1.787-.65l2.437-6.5c.65.325 1.463.488 2.113.813L67.6 20.962z" fill="#000" stroke="none" stroke-width="1"/><path id="e638zf7z1t0w10" d="M82.063 33.313c-.326-.488-.65-.976-1.138-1.626l5.688-4.062c.487.65.975 1.3 1.3 1.95l-5.85 3.738z" fill="#000" stroke="none" stroke-width="1"/><path id="e638zf7z1t0w11" d="M87.588 51.837l-.163-1.95 6.987-.325v2.276h-6.824z" fill="#000" stroke="none" stroke-width="1"/><path id="e638zf7z1t0w12" d="M55.9 67.112c.975-.162 1.95-.325 2.925-.65l1.138 3.413c-1.138.487-2.438.812-3.575.812l-.488-3.575z" fill="#000" stroke="none" stroke-width="1"/><path id="e638zf7z1t0w13" d="M44.2 64.025c.813.65 1.625 1.137 2.6 1.625l-1.625 3.25c-1.137-.488-2.112-1.138-3.087-1.95l2.112-2.925z" fill="#000" stroke="none" stroke-width="1"/><g transform="translate(53.625 51.675)" style="animation:e638zf7z1t0w14_tr__tr 3000ms linear infinite normal forwards"><path id="e638zf7z1t0w14" d="M52.325 47.613c-1.625.487-3.087 2.112-3.087 3.737-.163 1.788.812 3.575 2.437 4.388l-1.625 3.25c-2.925-1.463-4.712-4.55-4.387-7.963.162-3.087 2.6-6.175 5.687-6.987l.975 3.575z" transform="translate(-53.625 -51.675)" fill="#000" stroke="none" stroke-width="1"/></g></g><path id="e638zf7z1t0w15" d="M53.625 103.675c-1.95 0-4.063-.163-6.013-.325v-.65c10.725 1.3 21.938-.975 31.2-6.338C88.237 91 95.876 82.55 100.263 72.8l.65.325c-4.387 9.912-12.187 18.362-21.775 23.887-7.637 4.225-16.575 6.663-25.512 6.663z" fill="#000" stroke="none" stroke-width="1"/><path id="e638zf7z1t0w16" d="M47.612 101.887h.325L47.612 104h-.325l.325-2.113z" fill="#000" stroke="none" stroke-width="1"/><path id="e638zf7z1t0w17" d="M67.6 93.762l-.163-.65c17.55-5.525 30.063-23.075 29.738-41.275h.65c.325 18.525-12.35 36.238-30.225 41.925z" fill="#000" stroke="none" stroke-width="1"/><path id="e638zf7z1t0w18" d="M66.3 92.787l.65 1.95 1.787-.65-.65-1.95-1.787.65z" fill="#000" stroke="none" stroke-width="1"/><g transform="translate(53.625 51.675)" style="animation:e638zf7z1t0w19_tr__tr 3000ms linear infinite normal forwards"><path id="e638zf7z1t0w19" d="M53.625 99.45c-7.962 0-15.925-1.95-22.913-5.85l.326-.65c8.612 4.712 18.687 6.5 28.274 5.362 9.913-1.3 19.175-5.525 26.163-12.187l.488.487c-6.988 6.663-16.413 11.05-26.488 12.35-1.95.325-3.9.488-5.85.488z" transform="translate(-53.625 -51.675)" fill="#000" stroke="none" stroke-width="1"/></g><g transform="translate(53.625 51.675)" style="animation:e638zf7z1t0w20_tr__tr 3000ms linear infinite normal forwards"><path id="e638zf7z1t0w20" d="M31.525 92.3c-.487-.325-1.3-.162-1.625.488-.325.65-.162 1.3.488 1.625.65.325 1.3 0 1.625-.488.325-.65.162-1.3-.488-1.625z" transform="translate(-53.625 -51.675)" fill="#000" stroke="none" stroke-width="1"/></g><path id="e638zf7z1t0w21" d="M11.7 82.062C5.363 73.287 1.788 62.4 1.95 51.35c.163-11.213 3.738-22.1 10.238-30.55l.487.325C6.338 29.575 2.6 40.3 2.438 51.35c0 10.887 3.412 21.775 9.75 30.387l-.488.325z" fill="#000" stroke="none" stroke-width="1"/><path id="e638zf7z1t0w22" d="M13.325 21.45l-.162.325-1.788-1.3.325-.163 1.625 1.138z" fill="#000" stroke="none" stroke-width="1"/><path id="e638zf7z1t0w23" d="M31.525 90.025c-7.962-4.55-14.462-11.7-18.2-20.15C9.588 61.75 8.45 52 10.238 42.9l.65.162c-1.788 9.1-.65 18.525 2.925 26.65C17.55 78 23.886 85.15 31.85 89.537l-.325.488z" fill="#000" stroke="none" stroke-width="1"/><path id="e638zf7z1t0w24" d="M11.863 42.412l-2.113-.487c-.162.65-.325 1.3-.325 1.95l2.112.325c0-.65.163-1.3.325-1.788z" fill="#000" stroke="none" stroke-width="1"/><g transform="translate(53.674 51.675)" style="animation:e638zf7z1t0w25_tr__tr 3000ms linear infinite normal forwards"><path id="e638zf7z1t0w25" d="M7.15 62.4c-2.275-9.588-1.3-19.988 2.437-29.25 4.063-9.263 10.888-17.225 19.175-22.1l.325.487c-8.125 4.875-14.95 12.675-18.85 21.775C6.5 42.575 5.526 52.65 7.8 62.237l-.65.163z" transform="translate(-53.674 -51.675)" fill="#000" stroke="none" stroke-width="1"/></g><g transform="translate(53.625 51.675)" style="animation:e638zf7z1t0w26_tr__tr 3000ms linear infinite normal forwards"><path id="e638zf7z1t0w26" d="M29.575 12.512c.488-.325.65-1.137.325-1.625-.325-.65-1.137-.812-1.625-.487-.65.325-.813 1.137-.325 1.625.325.487 1.137.812 1.625.487z" transform="translate(-53.625 -51.675)" fill="#000" stroke="none" stroke-width="1"/></g><path id="e638zf7z1t0w27" d="M100.588 31.525c-4.55-10.237-12.025-18.688-21.125-23.887-9.1-5.363-20.15-7.8-31.038-6.825v-.65c11.05-.975 22.263 1.462 31.362 6.987 9.263 5.2 16.738 13.812 21.288 24.212l-.487.163z" fill="#000" stroke="none" stroke-width="1"/><path id="e638zf7z1t0w28" d="M100.1 32.013l-.162-.325 1.949-.813.163.325-1.95.813z" fill="#000" stroke="none" stroke-width="1"/><path id="e638zf7z1t0w29" d="M82.55 19.175c-6.662-6.013-15.275-9.75-24.537-10.725-9.263-.975-18.525 1.137-26.163 5.525l-.325-.487c7.8-4.55 17.225-6.663 26.488-5.688 9.425.975 18.2 4.875 24.862 10.888l-.325.487z" fill="#000" stroke="none" stroke-width="1"/><path id="e638zf7z1t0w30" d="M82.713 20.312l1.462-1.462-1.462-1.463-1.463 1.788 1.463 1.137z" fill="#000" stroke="none" stroke-width="1"/><g transform="translate(53.625 51.675)" style="animation:e638zf7z1t0w31_tr__tr 3000ms linear infinite normal forwards"><path id="e638zf7z1t0w31" d="M100.588 50.7C100.425 30.875 86.613 12.512 67.6 6.825l.163-.65c19.174 5.687 33.312 24.537 33.475 44.525h-.65z" transform="translate(-53.625 -51.513)" fill="#000" stroke="none" stroke-width="1"/></g><g transform="translate(53.625 51.675)" style="animation:e638zf7z1t0w32_tr__tr 3000ms linear infinite normal forwards"><path id="e638zf7z1t0w32" d="M99.775 50.7c0 .65.65 1.137 1.3 1.137s1.138-.487 1.138-1.137-.65-1.138-1.3-1.138-1.3.488-1.138 1.138z" transform="translate(-53.625 -51.513)" fill="#000" stroke="none" stroke-width="1"/></g><path id="e638zf7z1t0w33" d="M53.625 63.538c-6.5 0-11.862-5.363-11.862-11.863 0-6.5 5.362-11.862 11.862-11.862s11.862 5.362 11.862 11.862-5.362 11.863-11.862 11.863zm0-22.263c-5.85 0-10.4 4.712-10.4 10.4 0 5.688 4.712 10.4 10.4 10.4 5.85 0 10.4-4.713 10.4-10.4 0-5.688-4.713-10.4-10.4-10.4z" fill="#000" stroke="none" stroke-width="1"/><g transform="translate(53.625 51.675)" style="animation:e638zf7z1t0w34_tr__tr 3000ms linear infinite normal forwards"><path id="e638zf7z1t0w34" d="M53.625 79.788c-5.2 0-10.4-1.463-14.788-4.225l3.413-5.688a21.525 21.525 0 0011.375 3.25c11.862 0 21.45-9.587 21.45-21.45h6.5c0 15.6-12.513 28.113-27.95 28.113zM32.175 50.7l-6.5-.325c.813-14.95 13-26.487 27.95-26.487 5.85 0 11.375 1.787 16.088 5.037l-3.738 5.363c-3.575-2.6-7.8-3.9-12.35-3.9-11.375 0-20.8 8.937-21.45 20.312z" transform="translate(-53.625 -51.675)" opacity=".4" fill="#000" stroke="none" stroke-width="1"/></g></g><clipPath id="e638zf7z1t0w35"><rect id="e638zf7z1t0w36" width="104" height="104" rx="0" ry="0" fill="#FFF" stroke="none" stroke-width="1"/></clipPath></g></svg>
